HIERARCHY
ROOT Pelvis
{
	OFFSET 0.000000 0.000000 0.000000
	CHANNELS 6 Xposition Yposition Zposition Zrotation Yrotation Xrotation 
	JOINT Left_hip
	{
		OFFSET 0.068973 -0.091024 -0.007589
		CHANNELS 3 Zrotation Yrotation Xrotation
		JOINT Left_knee
		{
			OFFSET 0.036482 -0.391037 -0.003979
			CHANNELS 3 Zrotation Yrotation Xrotation
			JOINT Left_ankle
			{
				OFFSET -0.012239 -0.415469 -0.043440
				CHANNELS 3 Zrotation Yrotation Xrotation
				JOINT Left_foot
				{
					OFFSET 0.023806 -0.058558 0.118702
					CHANNELS 3 Zrotation Yrotation Xrotation
					End Site
					{
						OFFSET 0.000000 0.000000 0.000000
					}
				}
			}
		}
	}
	JOINT Right_hip
	{
		OFFSET -0.066552 -0.090468 -0.003847
		CHANNELS 3 Zrotation Yrotation Xrotation
		JOINT Right_knee
		{
			OFFSET -0.042435 -0.398340 -0.006400
			CHANNELS 3 Zrotation Yrotation Xrotation
			JOINT Right_ankle
			{
				OFFSET 0.014931 -0.415421 -0.041327
				CHANNELS 3 Zrotation Yrotation Xrotation
				JOINT Right_foot
				{
					OFFSET -0.021472 -0.049410 0.121889
					CHANNELS 3 Zrotation Yrotation Xrotation
					End Site
					{
						OFFSET 0.000000 0.000000 0.000000
					}
				}
			}
		}
	}
	JOINT Spine1
	{
		OFFSET -0.002904 0.105700 -0.022855
		CHANNELS 3 Zrotation Yrotation Xrotation
		JOINT Spine2
		{
			OFFSET 0.004179 0.132554 -0.002501
			CHANNELS 3 Zrotation Yrotation Xrotation
			JOINT Spine3
			{
				OFFSET 0.001987 0.049603 0.025988
				CHANNELS 3 Zrotation Yrotation Xrotation
				JOINT Neck
				{
					OFFSET -0.003935 0.211336 -0.045638
					CHANNELS 3 Zrotation Yrotation Xrotation
					JOINT Head
					{
						OFFSET 0.003906 0.065991 0.051018
						CHANNELS 3 Zrotation Yrotation Xrotation
						End Site
						{
							OFFSET 0.000000 0.000000 0.000000
						}
					}
				}
				JOINT Left_collar
				{
					OFFSET 0.072882 0.117751 -0.036270
					CHANNELS 3 Zrotation Yrotation Xrotation
					JOINT Left_shoulder
					{
						OFFSET 0.082118 0.032630 -0.005771
						CHANNELS 3 Zrotation Yrotation Xrotation
						JOINT Left_elbow
						{
							OFFSET 0.263305 -0.015144 -0.028095
							CHANNELS 3 Zrotation Yrotation Xrotation
							JOINT Left_wrist
							{
								OFFSET 0.250741 0.010115 -0.000759
								CHANNELS 3 Zrotation Yrotation Xrotation
								JOINT Left_palm
								{
									OFFSET 0.080683 -0.009989 -0.013613
									CHANNELS 3 Zrotation Yrotation Xrotation
									End Site
									{
										OFFSET 0.000000 0.000000 0.000000
									}
								}
							}
						}
					}
				}
				JOINT Right_collar
				{
					OFFSET -0.074811 0.116132 -0.040385
					CHANNELS 3 Zrotation Yrotation Xrotation
					JOINT Right_shoulder
					{
						OFFSET -0.085089 0.032943 -0.007484
						CHANNELS 3 Zrotation Yrotation Xrotation
						JOINT Right_elbow
						{
							OFFSET -0.254763 -0.014219 -0.020321
							CHANNELS 3 Zrotation Yrotation Xrotation
							JOINT Right_wrist
							{
								OFFSET -0.256597 0.009233 -0.005063
								CHANNELS 3 Zrotation Yrotation Xrotation
								JOINT Right_palm
								{
									OFFSET -0.080528 -0.007219 -0.010379
									CHANNELS 3 Zrotation Yrotation Xrotation
									End Site
									{
										OFFSET 0.000000 0.000000 0.000000
									}
								}
							}
						}
					}
				}
			}
		}
	}
}
MOTION
Frames: 9
Frame Time: 0.100000
0.000000 0.000000 0.000000 177.210028 9.804668 -18.651835 8.978832 8.244688 19.073723 -2.136839 5.151169 -6.924204 -4.557404 11.782958 1.103758 4.780675 5.386397 -4.921019 -2.810201 -5.666612 15.800840 4.276756 -4.446583 -4.895263 4.798918 -4.817918 -0.776576 -0.877875 -3.128305 4.696392 2.470451 -0.074686 -3.147280 -0.764367 -2.477861 9.617140 -0.246076 -1.381673 1.679345 -0.329213 20.469441 14.777963 -6.688748 12.711892 2.641263 -24.570343 0.484932 9.037463 -52.282537 1.174598 8.222485 4.934610 -22.012057 13.919552 -10.038199 -10.881872 7.375665 -10.289529 -2.585323 -22.400434 23.322842 4.769490 9.019945 53.611712 3.463023 12.762606 -7.019075 23.336722 5.626073 5.175520 7.191082 2.931908 11.129481 3.501947 -8.593130 
-0.002860 -0.000049 -0.000574 177.102726 11.054254 -18.861291 8.806251 8.022348 19.202151 -2.220078 4.750402 -7.195189 -4.652580 11.322854 1.091190 4.769089 5.479986 -4.894611 -3.063818 -5.923780 16.139264 4.184230 -4.976259 -4.869643 4.763105 -4.966811 -0.778810 -0.887618 -3.170606 4.645252 2.410272 0.106581 -3.356751 -0.738129 -2.399335 9.792682 -0.164458 -1.264634 1.277739 -0.528873 19.379585 14.201691 -6.273234 11.272868 1.848509 -24.555954 -1.030166 9.095600 -52.163150 -0.212537 8.778026 4.384497 -24.244969 14.757985 -9.860898 -11.247479 7.676761 -10.301049 -2.522088 -22.492134 23.405164 5.978174 9.693528 53.995205 3.188503 13.041096 -6.392482 22.814490 6.444524 5.432794 7.143734 2.805158 10.823938 3.489985 -8.610975 
-0.006207 0.000169 -0.002132 176.968466 12.743261 -18.922416 8.511897 7.667454 19.035193 -2.315979 4.175181 -7.515124 -4.654763 10.719448 1.158360 4.659102 5.588592 -4.852822 -3.367364 -6.209973 16.409618 4.140890 -5.756507 -5.039481 4.462925 -5.094251 -0.715839 -0.497829 -3.538439 4.743011 2.302244 0.193697 -3.219230 -0.833888 -2.429918 9.587459 -0.127166 -1.340832 0.811366 -0.791062 18.314730 13.701889 -5.849908 10.090969 1.262842 -24.561308 -2.263132 8.881301 -51.879946 -1.948415 9.196405 4.530820 -27.973372 15.407509 -9.493396 -12.045358 7.922371 -10.136839 -2.232543 -22.131504 23.418337 6.607129 10.213808 54.185847 2.571387 13.239495 -6.128095 23.500179 7.404659 5.570362 7.410532 2.577392 10.288818 3.420013 -8.314490 
-0.009400 0.000431 -0.005079 176.828308 13.753930 -18.999379 8.275990 7.394937 18.943575 -2.441937 3.898201 -7.815153 -4.701018 10.408334 1.118830 4.862613 5.411523 -4.803827 -3.562908 -6.308261 16.263835 4.055734 -6.478970 -4.688511 4.213670 -4.913794 -0.642830 -0.122993 -4.133631 4.749357 2.318602 0.146485 -2.803033 -0.904467 -2.254663 9.152241 -0.016530 -1.338660 0.655871 -0.991668 17.472676 13.175482 -5.570144 9.402612 0.804243 -24.263880 -2.680775 8.762633 -51.965807 -2.962040 9.227116 4.874176 -33.196494 15.631458 -8.307484 -13.200555 6.899644 -9.809069 -1.639468 -21.559481 23.087001 6.939458 10.595005 54.113277 2.371609 13.095695 -6.095732 24.474405 7.834529 5.367117 7.818774 1.816397 9.362528 3.062286 -7.896841 
-0.012625 0.000692 -0.007223 176.729141 14.011434 -18.995566 8.104461 7.262422 18.825386 -2.532986 3.879864 -7.850874 -4.726944 10.328210 0.938088 5.021078 5.295852 -4.728687 -3.693680 -6.336430 16.190099 3.996416 -6.753728 -4.716748 4.204301 -4.743663 -0.447515 0.016819 -4.477983 4.682205 2.232784 0.238772 -2.712936 -0.844770 -2.072088 9.027674 0.103169 -1.232876 0.525701 -0.983121 16.672224 12.712116 -5.264052 8.608722 0.059785 -23.910872 -2.763746 8.716866 -52.018763 -3.157238 9.386127 4.654806 -36.279472 16.335197 -7.862247 -13.947427 6.587275 -9.544404 -1.288368 -21.313784 22.815736 7.227254 10.719009 53.814299 2.377954 12.872737 -6.099259 24.795996 7.985571 5.241364 8.028310 1.578218 8.787422 2.796638 -7.719399 
-0.017260 0.000784 -0.009186 176.786438 14.079758 -19.063879 7.798459 7.287945 18.714578 -2.654051 3.883063 -7.523371 -4.648248 10.231300 0.737811 4.842543 5.425660 -4.566935 -4.097140 -6.518115 16.339808 3.887287 -6.772502 -4.904075 4.705880 -4.840300 -0.189676 -0.614264 -4.137825 4.330583 2.051765 0.444994 -2.740617 -0.855018 -2.114547 9.232626 0.065990 -1.191754 0.487455 -1.087364 16.122728 12.073008 -4.992760 7.663097 -1.152514 -23.839329 -3.022763 8.840816 -51.896514 -2.776944 9.182279 4.224506 -35.059566 16.396429 -8.429530 -13.662952 7.045597 -9.438032 -1.339111 -21.489118 22.763076 7.660997 10.595220 53.644717 2.396528 12.664017 -6.163416 24.593353 7.862665 5.296031 7.912304 2.318597 8.871402 2.810968 -7.914088 
-0.026389 0.000689 -0.013398 176.857468 15.284996 -19.348197 7.030878 7.141620 18.301358 -2.764694 3.363052 -6.601978 -4.407769 9.772415 0.545750 4.175124 5.915961 -4.357418 -4.848627 -6.769256 16.857422 3.495149 -7.017790 -5.161258 5.185411 -5.451201 0.187456 -1.435061 -3.708289 3.806061 1.816290 0.688888 -2.549533 -1.042138 -2.482626 9.845280 -0.177062 -1.350002 0.496570 -1.501278 14.669338 11.093884 -4.336519 5.560731 -3.861428 -24.092323 -3.573390 9.151084 -51.759521 -2.260972 8.602369 4.211674 -31.058977 15.377151 -10.143544 -12.916594 7.939975 -9.308406 -1.519283 -21.773071 22.759763 8.336121 10.306944 53.878651 1.827158 12.354129 -6.523729 24.322021 7.445118 5.604606 7.827835 3.277583 9.265128 2.936036 -8.060294 
-0.039168 0.001352 -0.020201 176.541693 17.292420 -19.801859 6.169599 6.887572 18.324934 -2.764307 2.274381 -6.621116 -4.046621 9.115341 0.324880 3.206718 6.509517 -3.808966 -5.612331 -6.978438 17.101094 3.031959 -7.697671 -4.609842 5.502962 -6.006812 0.513546 -2.029952 -3.682760 3.218610 1.794041 0.932716 -1.819442 -1.078323 -2.670094 11.035027 -0.263232 -1.354885 0.408907 -2.904846 12.409462 8.887727 -3.762579 2.036328 -9.717576 -24.390154 -4.327367 9.556806 -51.858775 -1.216728 7.692558 4.644914 -28.528070 13.837690 -12.128139 -12.277972 8.787337 -9.177012 -1.710334 -22.151751 22.921959 9.572026 10.242299 53.928282 0.542040 11.530581 -7.166564 24.288316 6.949846 6.149047 7.829567 4.452459 9.752488 3.006888 -8.236734 
-0.052018 0.002588 -0.028849 176.019296 18.809265 -19.849400 5.432967 6.702958 18.011432 -2.813269 1.483160 -7.062042 -3.799261 8.759368 0.092349 2.701490 6.646984 -3.313124 -6.169654 -7.271605 16.543784 2.668084 -8.434962 -3.891054 5.927062 -6.313446 1.040659 -2.541617 -3.741360 2.603202 1.616332 1.384495 -0.986121 -0.961875 -2.342117 11.948209 -0.086402 -0.950169 0.281369 -3.869150 10.205649 6.589016 -2.654776 -1.061635 -14.497722 -24.040106 -4.794583 9.935518 -51.947803 -0.061046 7.214559 4.510512 -27.929022 13.317622 -13.463483 -12.338583 9.267393 -8.769864 -1.572083 -22.293886 23.045737 11.079590 10.525607 54.135368 -0.100009 10.889704 -7.175085 23.447826 6.873184 6.576092 7.966795 5.173084 9.539014 2.800010 -8.231598 
